<?xml version="1.0" encoding="UTF-8"?>
<svg id="Layer_2" data-name="Layer 2" xmlns="http://www.w3.org/2000/svg" width="564" height="128" viewBox="0 0 564 128">
  <defs>
    <style>
      .cls-1 {
        fill: #231f20;
      }
    </style>
  </defs>
  <polygon class="cls-1" points="80 56 16 56 16 0 0 0 0 128 16 128 16 72 80 72 80 128 96 128 96 0 80 0 80 56"/>
  <polygon class="cls-1" points="348 16 388 16 388 128 404 128 404 16 444 16 444 0 348 0 348 16"/>
  <polygon class="cls-1" points="136 0 120 0 120 128 136 128 136 26.95 196 128 216 128 140 0 136 0"/>
  <polygon class="cls-1" points="488 0 484 0 468 0 468 128 484 128 484 26.95 544 128 564 128 488 0"/>
  <path class="cls-1" d="M280,0c-35.35,0-64,28.65-64,64s28.65,64,64,64,64-28.65,64-64S315.35,0,280,0ZM280,112c-26.51,0-48-21.49-48-48s21.49-48,48-48,48,21.49,48,48-21.49,48-48,48Z"/>
</svg>